<?xml version="1.0" encoding="utf-8"?>
<!-- Generator: Adobe Illustrator 17.0.0, SVG Export Plug-In . SVG Version: 6.00 Build 0)  -->
<!DOCTYPE svg PUBLIC "-//W3C//DTD SVG 1.1 Tiny//EN" "http://www.w3.org/Graphics/SVG/1.1/DTD/svg11-tiny.dtd">
<svg version="1.1" baseProfile="tiny" xmlns="http://www.w3.org/2000/svg" xmlns:xlink="http://www.w3.org/1999/xlink" x="0px"
	 y="0px" width="2777px" height="768px" viewBox="0 0 2777 768" xml:space="preserve">
<g id="Capa_2">
	<image width="2787" height="350" xlink:href="6492D79A.png"  transform="matrix(1 0 0 1 -10 420)">
	</image>
</g>
<g id="Capa_1">
	<linearGradient id="SVGID_1_" gradientUnits="userSpaceOnUse" x1="1388.3223" y1="342.8071" x2="1388.3223" y2="813.8542">
		<stop  offset="0" style="stop-color:#D47C00"/>
		<stop  offset="0.5074" style="stop-color:#925000"/>
		<stop  offset="1" style="stop-color:#5A2F00"/>
	</linearGradient>
	<path fill="url(#SVGID_1_)" d="M2753.522,697.13v-47.571h-11.573v-12.885h-7.922v-4.781h-6.816v3.536h-5.868v2.909h-2.696v14.329
		h-3.487v27.636h-3.014V632.52l-4.754-3.115l-4.12,1.661v-5.614h-12.046v27.012h-3.963v7.482h-1.905v2.909h-5.23v2.071h-5.395v2.081
		h-5.068v-5.405h-3.007v-2.901h-3.809v-3.116h-2.381v-2.288h-8.075v4.776h-3.648l-3.011,1.663v4.361h-4.596v8.106h-10.149v-3.533
		h-8.244v-24.928h-3.801l-12.522,0.413h-3.806v24.515h-2.062v5.815h-7.921v-5.397h-7.768v5.191h-17.437v-5.191h-7.135v6.024h-1.425
		v-24.1l-4.915-8.521h-16.804l-8.878,6.649v8.933h-4.596v-3.742h-5.86v3.533h-2.853v2.29h-5.868v-19.945h-12.679v-2.914h-8.559
		v-3.945h-14.43v-6.025h-14.104v7.479h-6.182v11.221h-1.905v8.724l-2.377-3.533h-9.346v-4.155h-7.138v4.779h-3.483v3.533h-2.538
		v13.715h-6.973v-4.163h-3.329v-2.899h-2.857v-1.253h4.286v-6.643h-13.006v-5.199h-3.006v-2.906h1.267v-7.685h-25.52v-9.978h-4.915
		v-4.361h-2.696v-5.815h-1.901v-4.573h-4.596v-9.142h-12.05l-3.164,2.909v6.86h-6.347l-4.278,7.889l-2.377-4.98l-13.951,0.209
		l1.432-2.917v-9.762l-21.081-0.624l-5.073,1.661v8.524h2.534v3.737h-6.497l-8.244,1.661l-1.59-2.489v-3.327h-5.069v-5.816h-3.014
		v-3.118h-10.294l-2.066,2.491v7.061h-6.497v4.781h-1.59v6.03h-2.613v-2.811l-2.617,3.43v16.621h-2.699v-5.609h-5.064v-4.361h-5.549
		v-5.403h-8.402v-5.818h-10.302l-1.582,2.081v9.552h-4.683v4.263l-1.031,1.349v44.874h-5.545v-44.046h-10.94v-3.324h-2.219v-1.867
		h-4.597v5.191h-2.215v-24.933l-5.073-19.319h-6.662v-9.143h-10.456v2.7h-1.908v-2.7h-11.408v36.776h-1.35v-11.737l-2.136-2.803
		h-2.059v-2.499l1.263-1.661l-2.692-3.113h-5.867v-8.936h-11.565v7.897h-5.396l-7.921,6.233v54.22h-12.684v-11.216l-3.01-3.739
		l-2.534,4.16v11.213h-12.683v-9.139h-4.522v-48.931l-2.613-3.43h-8.398v-12.459l-2.696-2.906h-1.9l-0.952-7.897l-0.638,7.897
		l-14.898,1.656v16h-8.402v9.975h-1.582v2.491h-5.867v8.098h-9.83v34.7h-5.545v-30.958h-9.988v-40.51h-2.381v-14.963h-5.545v-3.324
		h-6.182v-5.816h-13.789v5.816h-3.644v2.914h-8.402l-5.387,2.28v8.106h-9.193v3.115h-5.234v14.752h-4.435v53.186h-3.648v-8.724
		h-1.909v3.324h-4.273v5.191h-5.077v-2.491h-2.849l-2.381,3.115v11.843h-4.754l0.791-112.814l-30.593,4.988v39.055h-6.977v-12.049
		h-2.688v11.221h-2.223V576.42h-11.251v18.285h-8.878v2.497h2.853v6.852l-2.534,1.872v7.267h-2.224v7.691h-4.435v-6.027
		l-6.973-7.892v-27.84l-1.594-2.914h-3.321l-2.381-2.489h-4.278l-3.01-3.118h-13.313v7.685l-3.809,4.369h-4.12v6.228h-2.381v22.442
		h-1.582v27.425h-4.596v-12.258h-6.973v-8.521h-3.443v-36.407l-2.896-3.793h-2.936l-3.565-4.673h-12.837v1.864h-4.758l-3.333-3.324
		h-7.922v4.988h-6.973v1.253h1.425v2.489h-2.215v1.248h1.42v2.906l-0.787,1.037v3.948h-2.538v4.413h-2.255l-3.77-4.931h-10.7
		l-4.435,5.821l-1.822-2.394v-7.061h-3.333v-26.594l-2.377-2.491h-3.802l-6.025-4.57h-9.197v4.465h-3.412l-1.184-1.558h-4.278
		v10.385h-2.534v-2.906l-2.695-2.288h-8.244v4.988h-5.864v1.452h3.802v2.496h-4.911v1.868h1.582v7.278h-1.425v-4.369h-8.398v-8.101
		h-11.416v7.897h-2.853l-31.86-0.209h-5.073v11.634h-1.267l-53.263,61.079l-4.596,0.209v23.891h-2.216v-46.336l-2.219-3.734v-52.149
		l-1.114-5.607h-4.12v-6.025l-3.333-2.282h-11.88l-43.909,0.41l-3.805,2.288v79.158h-8.083v-4.363h-5.548v5.607h-1.74v-48.203
		l-9.669-3.115V564.58l-6.505-4.152h-5.544v-3.949h-7.135v-30.127l-62.452,1.243l-1.269,2.081v39.265h-6.501v11.43h-2.377v6.86
		l-8.238-3.535v-83.107l-36.617,1.253v43.837l-9.667-3.118V430.994l-7.895-5.266h-20.333l-12.667,2.667l0.632,43.109l0.157,30.749
		v47.37l-4.596,11.425v-12.462h-9.509v-3.742l0.948-2.081h-1.905l-1.104-5.189v5.815h-5.871l1.115,2.909h4.437v3.116h-16.008v3.742
		l-5.553,10.177v40.309h-4.754v9.552h-7.766v-8.307l-6.184-3.533v-15.995h-1.741v-50.485l-10.308-6.024h-6.973v-4.57l-6.975-4.16
		h-22.027v10.602h-14.586v-21.199h-7.288v-6.437l-27.901-9.767h-7.92l-28.853,8.315v29.289l-11.412-3.118v-6.434h-4.277v-2.914
		c0,0-2.696-2.282-9.195-1.864c-6.501,0.415-8.878,3.319-8.878,3.319v8.103l-7.447,1.872v33.24l-8.561,1.246v-25.555l-4.755-1.034
		v-13.093l-13.476-7.889h-8.876v4.153h-2.853v10.179h-3.644v2.29l-30.911,8.513v23.27l-6.338-0.209v-3.739l-3.333-0.209v3.533
		l-2.536,0.209v-38.437l-14.643-3.105l-0.496-14.865l-0.364,14.687l-6.052-1.29l-5.781,1.099l-0.478-14.496l-0.364,14.656
		l-16.36,3.11v23.682h-2.218v3.115l-18.232,1.457V524.48c0,0-0.472-1.036-1.106-1.655c-0.635-0.627-5.074-5.406-16.963-6.651
		c-11.89-1.245-32.177-1.872-32.177-1.872v38.021h-14.905v-72.296l-6.497-2.705l-0.439-21.669l-44.565-0.591l0.07,17.275v104.19
		l-2.145,2.808v8.309h-3.802v7.268h-2.536v-4.98h-5.706v-8.941l-18.704,0.418v9.769h-3.648v3.115h-3.803v4.57h-2.692v8.307h-5.075
		v16.83h-3.014v-6.437h-34.713v-10.597l-4.756-2.703v-5.4h-10.934v-3.118h-1.743v-5.194l-2.381-2.282h-15.536v7.061h-2.214v1.872
		h-3.486v2.28h-8.717v12.258h-4.284v-35.527h-3.008v-4.983h-20.451v4.155h-12.841v4.364h-23.3v-2.491h-4.913v1.664h-4.12v3.739
		h-12.048v5.609H522.01v80.192h-3.333v1.455l-4.596-2.074v-32.204h-5.387v-11.014h-9.671v8.309H484.44v-2.7l-2.218-1.455v-15.585
		h-12.207v-11.631h-12.52v-13.504h-2.851l-42.325,1.037v77.083l-11.729-0.418V552.111l-14.269-1.243v-6.646h-10.932v-2.078h-6.816
		l-10.785,2.7v4.57l-13.313,2.491v43.84h-24.253v-6.233c0,0-2.458-1.973-4.437-4.567c-1.985-2.597-3.804-7.273-3.804-7.273v18.285
		h-9.194v36.977h-4.596v23.059h-5.075v7.897h-2.851v-7.476l-9.512-4.573l-18.867,4.152v31.169h-3.011
		c0,0-197.025,0.209-198.93,1.664c-1.901,1.452-2.22,16.619-2.22,16.619l-57.854,2.081l-0.051,60.871h2777V697.13H2753.522z"/>
	<image width="2781" height="225" xlink:href="6492D79E.png"  transform="matrix(1 0 0 1 -10 544)">
	</image>
</g>
</svg>
